<mxfile host="Electron" modified="2023-05-11T06:55:58.501Z" agent="Mozilla/5.0 (Macintosh; Intel Mac OS X 10_15_7) AppleWebKit/537.36 (KHTML, like Gecko) draw.io/21.2.8 Chrome/112.0.5615.165 Electron/24.2.0 Safari/537.36" etag="yr4kAlnQvsH616Nb0uNb" version="21.2.8" type="device">
  <diagram name="Page-1" id="_fRIj1n8vz16LLprzVfK">
    <mxGraphModel dx="1194" dy="824" grid="1" gridSize="10" guides="1" tooltips="1" connect="1" arrows="1" fold="1" page="1" pageScale="1" pageWidth="827" pageHeight="1169" math="0" shadow="0">
      <root>
        <mxCell id="0" />
        <mxCell id="1" parent="0" />
        <mxCell id="PNm4nRD9-QAT-rsC2dgn-6" value="clear" style="edgeStyle=orthogonalEdgeStyle;curved=1;rounded=0;orthogonalLoop=1;jettySize=auto;html=1;exitX=0.25;exitY=1;exitDx=0;exitDy=0;entryX=1;entryY=0.25;entryDx=0;entryDy=0;" parent="1" source="PNm4nRD9-QAT-rsC2dgn-1" target="PNm4nRD9-QAT-rsC2dgn-2" edge="1">
          <mxGeometry relative="1" as="geometry" />
        </mxCell>
        <mxCell id="PNm4nRD9-QAT-rsC2dgn-7" value="start" style="edgeStyle=orthogonalEdgeStyle;curved=1;rounded=0;orthogonalLoop=1;jettySize=auto;html=1;exitX=1;exitY=0.25;exitDx=0;exitDy=0;entryX=0.75;entryY=0;entryDx=0;entryDy=0;" parent="1" source="PNm4nRD9-QAT-rsC2dgn-1" target="PNm4nRD9-QAT-rsC2dgn-3" edge="1">
          <mxGeometry x="-0.0909" y="-10" relative="1" as="geometry">
            <mxPoint as="offset" />
          </mxGeometry>
        </mxCell>
        <mxCell id="PNm4nRD9-QAT-rsC2dgn-1" value="STOPPED" style="rounded=1;whiteSpace=wrap;html=1;spacingTop=5;verticalAlign=top;fillColor=#333333;" parent="1" vertex="1">
          <mxGeometry x="280" y="200" width="240" height="120" as="geometry" />
        </mxCell>
        <mxCell id="PNm4nRD9-QAT-rsC2dgn-5" value="prepare" style="edgeStyle=orthogonalEdgeStyle;curved=1;rounded=0;orthogonalLoop=1;jettySize=auto;html=1;exitX=0.25;exitY=0;exitDx=0;exitDy=0;entryX=0;entryY=0.25;entryDx=0;entryDy=0;" parent="1" source="PNm4nRD9-QAT-rsC2dgn-2" target="PNm4nRD9-QAT-rsC2dgn-1" edge="1">
          <mxGeometry relative="1" as="geometry" />
        </mxCell>
        <mxCell id="PNm4nRD9-QAT-rsC2dgn-2" value="CLEARED" style="rounded=1;whiteSpace=wrap;html=1;verticalAlign=top;spacingTop=5;fillColor=#333333;" parent="1" vertex="1">
          <mxGeometry x="80" y="360" width="200" height="200" as="geometry" />
        </mxCell>
        <mxCell id="PNm4nRD9-QAT-rsC2dgn-8" value="stop" style="edgeStyle=orthogonalEdgeStyle;curved=1;rounded=0;orthogonalLoop=1;jettySize=auto;html=1;exitX=0;exitY=0.25;exitDx=0;exitDy=0;entryX=0.75;entryY=1;entryDx=0;entryDy=0;" parent="1" source="PNm4nRD9-QAT-rsC2dgn-3" target="PNm4nRD9-QAT-rsC2dgn-1" edge="1">
          <mxGeometry relative="1" as="geometry" />
        </mxCell>
        <mxCell id="PNm4nRD9-QAT-rsC2dgn-13" value="error" style="edgeStyle=orthogonalEdgeStyle;curved=1;rounded=0;orthogonalLoop=1;jettySize=auto;html=1;exitX=0.25;exitY=0;exitDx=0;exitDy=0;entryX=1;entryY=0.5;entryDx=0;entryDy=0;strokeColor=#FF3333;" parent="1" source="PNm4nRD9-QAT-rsC2dgn-3" target="PNm4nRD9-QAT-rsC2dgn-12" edge="1">
          <mxGeometry relative="1" as="geometry" />
        </mxCell>
        <mxCell id="PNm4nRD9-QAT-rsC2dgn-3" value="STARTED" style="rounded=1;whiteSpace=wrap;html=1;verticalAlign=top;spacingTop=5;fillColor=#333333;" parent="1" vertex="1">
          <mxGeometry x="480" y="360" width="320" height="200" as="geometry" />
        </mxCell>
        <mxCell id="PNm4nRD9-QAT-rsC2dgn-9" value="STARTED.READY" style="rounded=1;whiteSpace=wrap;html=1;verticalAlign=top;spacingTop=5;" parent="1" vertex="1">
          <mxGeometry x="500" y="500" width="120" height="40" as="geometry" />
        </mxCell>
        <mxCell id="PNm4nRD9-QAT-rsC2dgn-10" value="STARTED.SUSPENDED" style="rounded=1;whiteSpace=wrap;html=1;verticalAlign=top;spacingTop=5;" parent="1" vertex="1">
          <mxGeometry x="630" y="500" width="150" height="40" as="geometry" />
        </mxCell>
        <mxCell id="PNm4nRD9-QAT-rsC2dgn-11" value="CLEARED.ERROR" style="rounded=1;whiteSpace=wrap;html=1;verticalAlign=top;spacingTop=5;" parent="1" vertex="1">
          <mxGeometry x="120" y="500" width="120" height="40" as="geometry" />
        </mxCell>
        <mxCell id="PNm4nRD9-QAT-rsC2dgn-12" value="STOPPED.ERROR" style="rounded=1;whiteSpace=wrap;html=1;verticalAlign=top;spacingTop=5;" parent="1" vertex="1">
          <mxGeometry x="340" y="260" width="120" height="40" as="geometry" />
        </mxCell>
        <mxCell id="PNm4nRD9-QAT-rsC2dgn-16" value="error" style="edgeStyle=orthogonalEdgeStyle;curved=1;rounded=0;orthogonalLoop=1;jettySize=auto;html=1;exitX=0;exitY=0.75;exitDx=0;exitDy=0;entryX=0.75;entryY=0;entryDx=0;entryDy=0;strokeColor=#FF3333;" parent="1" source="PNm4nRD9-QAT-rsC2dgn-1" target="PNm4nRD9-QAT-rsC2dgn-11" edge="1">
          <mxGeometry x="-0.1429" y="10" relative="1" as="geometry">
            <mxPoint x="570" y="370" as="sourcePoint" />
            <mxPoint x="470" y="290" as="targetPoint" />
            <mxPoint as="offset" />
          </mxGeometry>
        </mxCell>
        <mxCell id="PNm4nRD9-QAT-rsC2dgn-17" value="" style="shape=waypoint;sketch=0;fillStyle=solid;size=6;pointerEvents=1;points=[];fillColor=none;resizable=0;rotatable=0;perimeter=centerPerimeter;snapToPoint=1;" parent="1" vertex="1">
          <mxGeometry x="140" y="400" width="20" height="20" as="geometry" />
        </mxCell>
        <mxCell id="PNm4nRD9-QAT-rsC2dgn-18" value="error" style="edgeStyle=orthogonalEdgeStyle;curved=1;rounded=0;orthogonalLoop=1;jettySize=auto;html=1;entryX=0.25;entryY=0;entryDx=0;entryDy=0;strokeColor=#FF3333;labelBackgroundColor=#333333;" parent="1" source="PNm4nRD9-QAT-rsC2dgn-17" target="PNm4nRD9-QAT-rsC2dgn-11" edge="1">
          <mxGeometry relative="1" as="geometry">
            <mxPoint x="290" y="300" as="sourcePoint" />
            <mxPoint x="220" y="510" as="targetPoint" />
          </mxGeometry>
        </mxCell>
        <mxCell id="PNm4nRD9-QAT-rsC2dgn-19" value="" style="shape=waypoint;sketch=0;fillStyle=solid;size=6;pointerEvents=1;points=[];fillColor=none;resizable=0;rotatable=0;perimeter=centerPerimeter;snapToPoint=1;" parent="1" vertex="1">
          <mxGeometry x="520" y="390" width="20" height="20" as="geometry" />
        </mxCell>
        <mxCell id="PNm4nRD9-QAT-rsC2dgn-21" value="readiness" style="edgeStyle=orthogonalEdgeStyle;curved=1;rounded=0;orthogonalLoop=1;jettySize=auto;html=1;entryX=0.25;entryY=0;entryDx=0;entryDy=0;labelBackgroundColor=#333333;" parent="1" source="PNm4nRD9-QAT-rsC2dgn-19" target="PNm4nRD9-QAT-rsC2dgn-9" edge="1">
          <mxGeometry relative="1" as="geometry">
            <mxPoint x="350" y="330" as="sourcePoint" />
            <mxPoint x="290" y="420" as="targetPoint" />
          </mxGeometry>
        </mxCell>
        <mxCell id="PNm4nRD9-QAT-rsC2dgn-22" value="not ready" style="edgeStyle=orthogonalEdgeStyle;curved=1;rounded=0;orthogonalLoop=1;jettySize=auto;html=1;exitX=0.75;exitY=0;exitDx=0;exitDy=0;entryX=0.45;entryY=0.8;entryDx=0;entryDy=0;entryPerimeter=0;labelBackgroundColor=#333333;" parent="1" source="PNm4nRD9-QAT-rsC2dgn-9" target="PNm4nRD9-QAT-rsC2dgn-23" edge="1">
          <mxGeometry relative="1" as="geometry">
            <mxPoint x="620" y="410" as="sourcePoint" />
            <mxPoint x="900" y="450" as="targetPoint" />
          </mxGeometry>
        </mxCell>
        <mxCell id="PNm4nRD9-QAT-rsC2dgn-23" value="" style="shape=waypoint;sketch=0;fillStyle=solid;size=6;pointerEvents=1;points=[];fillColor=none;resizable=0;rotatable=0;perimeter=centerPerimeter;snapToPoint=1;" parent="1" vertex="1">
          <mxGeometry x="580" y="390" width="20" height="20" as="geometry" />
        </mxCell>
        <mxCell id="PNm4nRD9-QAT-rsC2dgn-24" value="" style="shape=waypoint;sketch=0;fillStyle=solid;size=6;pointerEvents=1;points=[];fillColor=none;resizable=0;rotatable=0;perimeter=centerPerimeter;snapToPoint=1;" parent="1" vertex="1">
          <mxGeometry x="660" y="390" width="20" height="20" as="geometry" />
        </mxCell>
        <mxCell id="PNm4nRD9-QAT-rsC2dgn-25" value="" style="shape=waypoint;sketch=0;fillStyle=solid;size=6;pointerEvents=1;points=[];fillColor=none;resizable=0;rotatable=0;perimeter=centerPerimeter;snapToPoint=1;" parent="1" vertex="1">
          <mxGeometry x="730" y="390" width="20" height="20" as="geometry" />
        </mxCell>
        <mxCell id="PNm4nRD9-QAT-rsC2dgn-26" value="unsuspend" style="edgeStyle=orthogonalEdgeStyle;curved=1;rounded=0;orthogonalLoop=1;jettySize=auto;html=1;exitX=0.75;exitY=0;exitDx=0;exitDy=0;entryX=0.15;entryY=0.5;entryDx=0;entryDy=0;entryPerimeter=0;labelBackgroundColor=#333333;" parent="1" source="PNm4nRD9-QAT-rsC2dgn-10" target="PNm4nRD9-QAT-rsC2dgn-25" edge="1">
          <mxGeometry relative="1" as="geometry">
            <mxPoint x="600" y="510" as="sourcePoint" />
            <mxPoint x="600" y="410" as="targetPoint" />
          </mxGeometry>
        </mxCell>
        <mxCell id="PNm4nRD9-QAT-rsC2dgn-28" value="suspend" style="edgeStyle=orthogonalEdgeStyle;curved=1;rounded=0;orthogonalLoop=1;jettySize=auto;html=1;entryX=0.25;entryY=0;entryDx=0;entryDy=0;exitX=0.8;exitY=0.5;exitDx=0;exitDy=0;exitPerimeter=0;labelBackgroundColor=#333333;" parent="1" source="PNm4nRD9-QAT-rsC2dgn-24" target="PNm4nRD9-QAT-rsC2dgn-10" edge="1">
          <mxGeometry relative="1" as="geometry">
            <mxPoint x="540" y="410" as="sourcePoint" />
            <mxPoint x="540" y="510" as="targetPoint" />
          </mxGeometry>
        </mxCell>
      </root>
    </mxGraphModel>
  </diagram>
</mxfile>
